<svg width="34" height="34" viewBox="0 0 34 34" fill="none" xmlns="http://www.w3.org/2000/svg">
<path d="M19.9912 16.8912C19.8236 16.8912 19.668 16.8451 19.5297 16.771V16.773C19.5297 17.0367 19.4272 17.2843 19.2413 17.4698C19.0553 17.6558 18.8078 17.7583 18.5444 17.7583C18.3744 17.7583 18.2168 17.711 18.0771 17.6349C18.063 17.8762 17.9665 18.1016 17.7945 18.2739C17.6085 18.4598 17.3611 18.5623 17.0975 18.5623C16.5739 18.5623 16.1486 18.1507 16.118 17.6348C15.956 17.7223 15.7728 17.7683 15.5838 17.7561C15.0687 17.7223 14.6653 17.2773 14.6653 16.7426V12.311L14.1607 13.1852C13.9685 13.5196 13.6087 13.7272 13.2213 13.7272C13.0326 13.7272 12.8461 13.6777 12.681 13.5831C12.4753 13.4639 12.3282 13.2725 12.2671 13.0435C12.2056 12.8144 12.2374 12.5748 12.3563 12.3695C12.3564 12.3695 14.0074 9.5106 14.1081 9.33499C14.12 9.30859 14.1542 9.23201 14.1832 9.16674C14.2109 9.10442 14.2347 9.04046 14.2575 8.97618C14.7553 7.57062 15.9881 6.69751 17.4749 6.69751C19.4055 6.69751 20.9762 8.40073 20.9762 10.4943L20.9764 15.9058C20.9764 16.1692 20.8741 16.4166 20.6883 16.6028C20.5023 16.7887 20.2548 16.8912 19.9912 16.8912L19.9912 16.8912ZM17.4749 7.22106C16.1974 7.22106 15.1791 7.94265 14.7509 9.15127C14.7236 9.22801 14.695 9.30476 14.6617 9.37954C14.5651 9.59618 14.5651 9.59618 14.5379 9.62733L14.5343 9.62422C14.3995 9.87857 13.999 10.5721 12.8096 12.6315C12.7607 12.716 12.7478 12.814 12.7727 12.9078C12.798 13.0017 12.8585 13.0807 12.9423 13.1291C13.2024 13.2785 13.5586 13.182 13.7068 12.9238L14.7004 11.2035C14.7598 11.101 14.8798 11.0506 14.995 11.0818C15.1094 11.1124 15.189 11.2162 15.189 11.3346V16.7428C15.189 16.998 15.3815 17.2182 15.6182 17.2338C15.7546 17.241 15.8819 17.1952 15.9775 17.0998C16.0644 17.0129 16.1123 16.8971 16.1123 16.7733V13.2363C16.1123 13.0916 16.2295 12.9744 16.3742 12.9744C16.5188 12.9744 16.6361 13.0915 16.6361 13.2363L16.6359 17.5772C16.6359 17.8317 16.843 18.0389 17.0975 18.0389C17.2212 18.0389 17.3373 17.991 17.4244 17.9041C17.5113 17.817 17.5592 17.7009 17.5592 17.5772V13.2363C17.5592 13.0916 17.6763 12.9744 17.8211 12.9744C17.9657 12.9744 18.083 13.0915 18.083 13.2363L18.0828 16.7326V16.7733C18.0828 17.0276 18.2899 17.2347 18.5446 17.2347C18.6681 17.2347 18.7839 17.1867 18.8714 17.0994C18.9584 17.0127 19.0062 16.8969 19.0062 16.7731V13.2361C19.0062 13.0915 19.1233 12.9742 19.2681 12.9742C19.4128 12.9742 19.53 13.0913 19.53 13.2361L19.5297 15.9059C19.5297 16.1606 19.7368 16.3677 19.9912 16.3677C20.115 16.3677 20.2308 16.3197 20.3177 16.2329C20.4049 16.1457 20.4526 16.0296 20.4526 15.9059L20.4528 10.4944C20.4528 8.68969 19.1169 7.22111 17.4749 7.22111L17.4749 7.22106Z" fill="#103E13"/>
<path d="M9.7015 20.6523L13.5018 18.3725C13.96 18.0973 14.5496 18.2142 14.8435 18.6388C14.9507 18.7934 15.0055 18.9737 15.014 19.1572C15.1557 19.0832 15.3099 19.0431 15.4668 19.0431C15.5472 19.0431 15.6278 19.0531 15.7075 19.0729C15.9629 19.1367 16.178 19.2963 16.3133 19.5219C16.4488 19.7479 16.4883 20.0127 16.4245 20.2678C16.3657 20.5037 16.2222 20.7024 16.0226 20.8386C16.1621 20.921 16.2825 21.0333 16.3681 21.1763C16.5036 21.4023 16.5431 21.667 16.4795 21.9223C16.4157 22.1773 16.2561 22.3925 16.0301 22.5281L16.0288 22.5289C16.1659 22.6111 16.2842 22.7223 16.3688 22.8631C16.5044 23.0891 16.5439 23.354 16.4801 23.6093C16.4162 23.8645 16.2566 24.0796 16.031 24.2151L11.3907 26.9989C10.5246 27.5182 9.52344 27.6975 8.57196 27.5032C7.61196 27.307 6.8169 26.7552 6.33348 25.9493C5.56844 24.6743 5.68309 23.1679 6.63211 22.0181C6.67557 21.9656 6.71837 21.9122 6.75723 21.8567C6.7984 21.7982 6.84645 21.7293 6.86285 21.7057C6.96107 21.5302 8.56379 18.6426 8.56379 18.6426C8.72565 18.3506 9.02904 18.1852 9.34193 18.1854C9.48788 18.1854 9.63597 18.2213 9.77258 18.2971C9.93756 18.3892 10.0761 18.5236 10.1731 18.6854C10.3723 19.0175 10.3794 19.4331 10.1917 19.7694L9.7015 20.6523ZM9.7243 18.9546C9.67346 18.8699 9.6036 18.8023 9.51816 18.7544C9.34154 18.6567 9.11916 18.7203 9.02193 18.8963C7.87498 20.9626 7.484 21.6667 7.33312 21.9173L7.33656 21.9182C7.32393 21.9601 7.32393 21.9601 7.18585 22.1574C7.13895 22.2242 7.08795 22.2883 7.03596 22.3514C6.21992 23.3401 6.12516 24.5844 6.78227 25.68C7.1893 26.3586 7.862 26.8238 8.67654 26.9901C9.49993 27.1575 10.3678 27.0017 11.121 26.5498L15.7617 23.7659C15.8677 23.7024 15.9424 23.6016 15.9723 23.482C16.0021 23.3626 15.9836 23.2385 15.92 23.1325C15.7891 22.9144 15.5049 22.8428 15.2868 22.9741L12.9975 24.3476C12.8735 24.422 12.7125 24.382 12.6382 24.2579C12.5637 24.1339 12.6039 23.973 12.7279 23.8986L15.0174 22.5251L15.7609 22.0791C15.8669 22.0154 15.9418 21.9146 15.9716 21.7954C16.0015 21.6758 15.983 21.5515 15.9193 21.4457C15.7883 21.2274 15.5041 21.1564 15.2862 21.2873L12.2531 23.1068C12.1288 23.1814 11.9683 23.1411 11.8938 23.0171C11.8194 22.8931 11.8597 22.7323 11.9835 22.6578L15.706 20.4247C15.8119 20.3611 15.8867 20.2604 15.9165 20.1409C15.9464 20.0215 15.9279 19.8973 15.8644 19.7914C15.8009 19.6856 15.7001 19.6108 15.5805 19.581C15.4603 19.5511 15.3367 19.5697 15.2311 19.633L14.542 20.0464V20.0464L11.5086 21.8661C11.3843 21.9409 11.2236 21.9005 11.1493 21.7764C11.0748 21.6524 11.1152 21.4915 11.239 21.4171L14.272 19.5976C14.378 19.5339 14.4529 19.4331 14.4828 19.3139C14.5156 19.183 14.4906 19.0492 14.4129 18.937C14.2781 18.742 13.9898 18.6902 13.7712 18.8215L9.13387 21.6035C9.03235 21.6642 8.90231 21.6494 8.8172 21.5673C8.73192 21.485 8.71273 21.3556 8.77013 21.2521L9.73442 19.5147C9.83117 19.3411 9.82745 19.1265 9.7243 18.9546Z" fill="#103E13"/>
<path d="M27.8613 25.9492C27.378 26.7552 26.5831 27.3069 25.6229 27.503C24.6713 27.697 23.6704 27.5181 22.8042 26.9987L18.1635 24.2148C17.9377 24.0793 17.778 23.8642 17.714 23.6087C17.6506 23.3537 17.6902 23.0888 17.8255 22.8631C17.91 22.7221 18.0284 22.6109 18.1657 22.5288L18.1643 22.528C17.9385 22.3925 17.7788 22.1773 17.7152 21.9221C17.6512 21.667 17.6909 21.4019 17.8264 21.176C17.9136 21.0309 18.0332 20.9174 18.1696 20.8369C17.9715 20.7006 17.8288 20.5027 17.7701 20.2678C17.7062 20.0125 17.7458 19.7476 17.8813 19.5219C18.0166 19.2961 18.2319 19.1366 18.4871 19.0728C18.5668 19.0528 18.6476 19.0429 18.7277 19.0429C18.8848 19.0431 19.0389 19.0829 19.1806 19.1571C19.1893 18.9736 19.2439 18.7933 19.3512 18.6387C19.6452 18.2144 20.2343 18.097 20.6931 18.3724L24.4933 20.6519L24.0035 19.7696C23.8156 19.4327 23.8225 19.0172 24.0217 18.6849C24.1188 18.5232 24.2575 18.3889 24.4233 18.2959C24.5596 18.2205 24.7072 18.1847 24.8528 18.1847C25.1655 18.1849 25.4693 18.3499 25.6309 18.642C26.1944 19.6573 27.2577 21.572 27.3325 21.7057C27.3484 21.7288 27.3965 21.7977 27.4376 21.8562C27.4768 21.9118 27.5191 21.965 27.5629 22.0178C28.5118 23.168 28.6263 24.6743 27.8613 25.9492ZM27.1589 22.3515C27.1067 22.2884 27.0556 22.2239 27.009 22.1575C26.8673 21.9565 26.8637 21.9512 26.853 21.8986C26.6874 21.6245 26.2834 20.8971 25.1726 18.896C25.0752 18.7204 24.8538 18.6563 24.6775 18.7537C24.5908 18.8022 24.5211 18.8699 24.4703 18.9547C24.3673 19.1264 24.3633 19.3409 24.4606 19.5151L25.4245 21.2519C25.4821 21.3556 25.4629 21.4848 25.3778 21.5671C25.2928 21.6496 25.163 21.664 25.061 21.6034L20.4236 18.8214C20.205 18.6904 19.9169 18.7417 19.7817 18.9368C19.704 19.049 19.6793 19.1828 19.7117 19.3135C19.7416 19.4329 19.8165 19.5336 19.9226 19.5972L19.9234 19.5979L22.9555 21.4169C23.0795 21.4913 23.1197 21.6521 23.0452 21.7762C22.9708 21.9 22.8102 21.9405 22.6859 21.8659L18.9634 19.6328C18.8578 19.5695 18.7335 19.5508 18.6141 19.5808C18.4944 19.6107 18.3937 19.6855 18.3303 19.7916C18.2666 19.8974 18.2483 20.0215 18.2778 20.1409C18.3076 20.2603 18.3826 20.3611 18.4885 20.4248L19.2129 20.8592L22.2108 22.6579C22.3348 22.7323 22.375 22.893 22.3005 23.0172C22.2261 23.141 22.0655 23.1813 21.9412 23.1069L18.9085 21.2874C18.6904 21.1562 18.4064 21.2273 18.2752 21.4458C18.2115 21.5517 18.1932 21.6759 18.2227 21.7953C18.2525 21.9146 18.3275 22.0153 18.4336 22.0791L19.1771 22.5252L21.4663 23.8986C21.5903 23.9731 21.6304 24.1338 21.556 24.2579C21.4815 24.3817 21.321 24.4224 21.1967 24.3476L18.9075 22.9742C18.8019 22.9109 18.6781 22.8922 18.5581 22.9222C18.4387 22.9521 18.3376 23.0268 18.2742 23.1326C18.2107 23.2385 18.1922 23.3629 18.2217 23.4821C18.2516 23.6015 18.3265 23.7022 18.4326 23.7659L23.0733 26.5499C23.8264 27.0017 24.6949 27.1581 25.5178 26.9902C26.3322 26.8239 27.0049 26.3586 27.4119 25.68C28.0697 24.5842 27.9748 23.3399 27.1589 22.3515Z" fill="#103E13"/>
</svg>
