<svg width="34" height="34" viewBox="0 0 34 34" fill="none" xmlns="http://www.w3.org/2000/svg">
<path d="M19.1462 13.6657C18.9291 13.6657 18.7525 13.4895 18.7525 13.272V12.6029C18.7525 12.3857 18.9288 12.2091 19.1462 12.2091C19.3634 12.2091 19.54 12.3854 19.54 12.6029V13.272C19.54 13.4895 19.3634 13.6657 19.1462 13.6657Z" fill="#103E13"/>
<path d="M17.4909 13.6657C17.2737 13.6657 17.0971 13.4895 17.0971 13.272V12.6029C17.0971 12.3857 17.2734 12.2091 17.4909 12.2091C17.708 12.2091 17.8846 12.3854 17.8846 12.6029V13.272C17.8843 13.4895 17.7083 13.6657 17.4909 13.6657Z" fill="#103E13"/>
<path d="M15.8356 13.6657C15.6184 13.6657 15.4418 13.4895 15.4418 13.272V12.6029C15.4418 12.3857 15.6181 12.2091 15.8356 12.2091C16.0528 12.2091 16.2293 12.3854 16.2293 12.6029V13.272C16.2293 13.4895 16.0531 13.6657 15.8356 13.6657Z" fill="#103E13"/>
<path d="M19.1462 16.4021C18.9291 16.4021 18.7525 16.2258 18.7525 16.0084V15.3395C18.7525 15.1223 18.9288 14.9457 19.1462 14.9457C19.3634 14.9457 19.54 15.122 19.54 15.3395V16.0084C19.54 16.2258 19.3634 16.4021 19.1462 16.4021Z" fill="#103E13"/>
<path d="M17.4909 16.4021C17.2737 16.4021 17.0971 16.2258 17.0971 16.0084V15.3395C17.0971 15.1223 17.2734 14.9457 17.4909 14.9457C17.708 14.9457 17.8846 15.122 17.8846 15.3395V16.0084C17.8843 16.2258 17.7083 16.4021 17.4909 16.4021Z" fill="#103E13"/>
<path d="M15.8356 16.4021C15.6184 16.4021 15.4418 16.2258 15.4418 16.0084V15.3395C15.4418 15.1223 15.6181 14.9457 15.8356 14.9457C16.0528 14.9457 16.2293 15.122 16.2293 15.3395V16.0084C16.2293 16.2258 16.0531 16.4021 15.8356 16.4021Z" fill="#103E13"/>
<path d="M19.1462 19.1386C18.9291 19.1386 18.7525 18.9623 18.7525 18.7448V18.0757C18.7525 17.8585 18.9288 17.6819 19.1462 17.6819C19.3634 17.6819 19.54 17.8582 19.54 18.0757V18.7448C19.54 18.9623 19.3634 19.1386 19.1462 19.1386Z" fill="#103E13"/>
<path d="M17.4909 19.1386C17.2737 19.1386 17.0971 18.9623 17.0971 18.7448V18.0757C17.0971 17.8585 17.2734 17.6819 17.4909 17.6819C17.708 17.6819 17.8846 17.8582 17.8846 18.0757V18.7448C17.8843 18.9623 17.7083 19.1386 17.4909 19.1386Z" fill="#103E13"/>
<path d="M15.8356 19.1386C15.6184 19.1386 15.4418 18.9623 15.4418 18.7448V18.0757C15.4418 17.8585 15.6181 17.6819 15.8356 17.6819C16.0528 17.6819 16.2293 17.8582 16.2293 18.0757V18.7448C16.2293 18.9623 16.0531 19.1386 15.8356 19.1386Z" fill="#103E13"/>
<path d="M19.1462 21.8744C18.9291 21.8744 18.7525 21.6981 18.7525 21.4807V20.8115C18.7525 20.5943 18.9288 20.4178 19.1462 20.4178C19.3634 20.4178 19.54 20.5941 19.54 20.8115V21.4807C19.54 21.6981 19.3634 21.8744 19.1462 21.8744Z" fill="#103E13"/>
<path d="M17.4909 21.8744C17.2737 21.8744 17.0971 21.6981 17.0971 21.4807V20.8115C17.0971 20.5943 17.2734 20.4178 17.4909 20.4178C17.708 20.4178 17.8846 20.5941 17.8846 20.8115V21.4807C17.8843 21.6981 17.7083 21.8744 17.4909 21.8744Z" fill="#103E13"/>
<path d="M15.8356 21.8744C15.6184 21.8744 15.4418 21.6981 15.4418 21.4807V20.8115C15.4418 20.5943 15.6181 20.4178 15.8356 20.4178C16.0528 20.4178 16.2293 20.5941 16.2293 20.8115V21.4807C16.2293 21.6981 16.0531 21.8744 15.8356 21.8744Z" fill="#103E13"/>
<path d="M19.1462 24.6108C18.9291 24.6108 18.7525 24.4345 18.7525 24.217V23.5482C18.7525 23.331 18.9288 23.1544 19.1462 23.1544C19.3634 23.1544 19.54 23.3307 19.54 23.5482V24.217C19.54 24.4342 19.3634 24.6108 19.1462 24.6108Z" fill="#103E13"/>
<path d="M17.4909 24.6108C17.2737 24.6108 17.0971 24.4345 17.0971 24.217V23.5482C17.0971 23.331 17.2734 23.1544 17.4909 23.1544C17.708 23.1544 17.8846 23.3307 17.8846 23.5482V24.217C17.8843 24.4342 17.7083 24.6108 17.4909 24.6108Z" fill="#103E13"/>
<path d="M15.8356 24.6108C15.6184 24.6108 15.4418 24.4345 15.4418 24.217L15.4421 23.5482C15.4421 23.331 15.6184 23.1544 15.8359 23.1544C16.053 23.1544 16.2296 23.3307 16.2296 23.5482V24.217C16.2293 24.4342 16.0531 24.6108 15.8356 24.6108Z" fill="#103E13"/>
<path d="M4.58737 27.334C4.58737 27.5512 4.76365 27.7277 4.98112 27.7277H28.9591C29.1763 27.7277 29.3529 27.5514 29.3529 27.334C29.3529 27.1168 29.1766 26.9402 28.9591 26.9402H28.2313V15.6352C28.2313 15.418 28.055 15.2414 27.8375 15.2414L21.4088 15.2417V7.09132C21.4088 6.95348 21.3369 6.82608 21.2194 6.75468C21.1021 6.68302 20.9555 6.67863 20.8336 6.74205L13.5246 10.5475C13.3942 10.6153 13.3129 10.7498 13.3129 10.8967V18.0159H6.23942C6.02223 18.0159 5.84567 18.1922 5.84567 18.4097V26.9403H4.98024C4.76305 26.94 4.58704 27.1163 4.58704 27.3338L4.58737 27.334ZM21.409 21.2051H27.4442V26.9406L21.409 26.9403V21.2051ZM21.409 18.469H27.4442V20.4179L21.409 20.4177V18.469ZM21.409 16.0288H27.4442V17.682H21.409V16.0288ZM14.1 11.1358L20.6212 7.74035V26.9399H14.1V11.1358ZM8.57961 23.7954C8.57961 22.9783 9.22706 22.3132 10.0231 22.3132C10.819 22.3132 11.4668 22.978 11.4668 23.7954V26.9404H8.57961V23.7954ZM6.63315 18.8033H13.3128V26.9403H12.2543V23.7953C12.2543 22.544 11.2537 21.5259 10.0231 21.5259C8.79294 21.5259 7.7924 22.5437 7.7924 23.7953V26.9403H6.63315V18.8033Z" fill="#103E13"/>
</svg>
